<mxfile host="app.diagrams.net" modified="2024-05-04T09:40:36.167Z" agent="Mozilla/5.0 (Windows NT 10.0; Win64; x64) AppleWebKit/537.36 (KHTML, like Gecko) Chrome/124.0.0.0 Safari/537.36" etag="wbQxJgNw2iEWoC2Nrpcv" version="24.3.1" type="device">
  <diagram name="Page-1" id="DaOJ-SnlytCNMW1Ep_SM">
    <mxGraphModel dx="683" dy="373" grid="1" gridSize="10" guides="1" tooltips="1" connect="1" arrows="1" fold="1" page="1" pageScale="1" pageWidth="850" pageHeight="1100" math="0" shadow="0">
      <root>
        <mxCell id="0" />
        <mxCell id="1" parent="0" />
        <mxCell id="92w7o3llZzaxUqjqBMz4-1" value="View" style="swimlane;fontStyle=1;align=center;verticalAlign=middle;childLayout=stackLayout;horizontal=1;startSize=29;horizontalStack=0;resizeParent=1;resizeParentMax=0;resizeLast=0;collapsible=0;marginBottom=0;html=1;whiteSpace=wrap;" parent="1" vertex="1">
          <mxGeometry x="420" y="158" width="140" height="64" as="geometry" />
        </mxCell>
        <mxCell id="NybTInfgv7kDnDXbEksJ-48" style="edgeStyle=orthogonalEdgeStyle;rounded=0;orthogonalLoop=1;jettySize=auto;html=1;" parent="1" source="92w7o3llZzaxUqjqBMz4-4" edge="1">
          <mxGeometry relative="1" as="geometry">
            <mxPoint x="570" y="185" as="targetPoint" />
          </mxGeometry>
        </mxCell>
        <mxCell id="92w7o3llZzaxUqjqBMz4-4" value="Controller" style="swimlane;fontStyle=1;align=center;verticalAlign=middle;childLayout=stackLayout;horizontal=1;startSize=30;horizontalStack=0;resizeParent=1;resizeParentMax=0;resizeLast=0;collapsible=0;marginBottom=0;html=1;whiteSpace=wrap;" parent="1" vertex="1">
          <mxGeometry x="717" y="115" width="163" height="140" as="geometry" />
        </mxCell>
        <mxCell id="NybTInfgv7kDnDXbEksJ-45" value="public void bookTicket()&lt;div&gt;&lt;br&gt;&lt;/div&gt;&lt;div&gt;public void scheduleFlight()&lt;/div&gt;&lt;div&gt;&lt;br&gt;&lt;/div&gt;&lt;div&gt;public view FlightSchedule()&lt;div&gt;&lt;br&gt;&lt;/div&gt;&lt;div&gt;public void ViewTicketList()&lt;/div&gt;&lt;/div&gt;" style="text;html=1;align=center;verticalAlign=middle;resizable=0;points=[];autosize=1;strokeColor=none;fillColor=none;" parent="92w7o3llZzaxUqjqBMz4-4" vertex="1">
          <mxGeometry y="30" width="163" height="110" as="geometry" />
        </mxCell>
        <mxCell id="92w7o3llZzaxUqjqBMz4-155" style="edgeStyle=orthogonalEdgeStyle;rounded=0;orthogonalLoop=1;jettySize=auto;html=1;exitX=1;exitY=0.5;exitDx=0;exitDy=0;" parent="1" source="92w7o3llZzaxUqjqBMz4-7" target="92w7o3llZzaxUqjqBMz4-121" edge="1">
          <mxGeometry relative="1" as="geometry" />
        </mxCell>
        <mxCell id="92w7o3llZzaxUqjqBMz4-7" value="Model" style="swimlane;fontStyle=1;align=center;verticalAlign=middle;childLayout=stackLayout;horizontal=1;startSize=29;horizontalStack=0;resizeParent=1;resizeParentMax=0;resizeLast=0;collapsible=0;marginBottom=0;html=1;whiteSpace=wrap;" parent="1" vertex="1">
          <mxGeometry x="660" y="295.5" width="277" height="119" as="geometry" />
        </mxCell>
        <mxCell id="NybTInfgv7kDnDXbEksJ-26" value="-Attribute: ArrayList&amp;lt;FlightSchedular&amp;gt;&amp;gt; schedule&lt;div&gt;- Attribute: ArrayList&amp;lt;&amp;lt;Ticket&amp;gt;&amp;gt; t&lt;span style=&quot;background-color: initial;&quot;&gt;icketList&lt;/span&gt;&lt;/div&gt;&lt;div&gt;&lt;br&gt;&lt;/div&gt;&lt;div&gt;&lt;br&gt;&lt;/div&gt;&lt;div&gt;&lt;br&gt;&lt;/div&gt;" style="text;html=1;align=center;verticalAlign=middle;resizable=0;points=[];autosize=1;strokeColor=none;fillColor=none;" parent="92w7o3llZzaxUqjqBMz4-7" vertex="1">
          <mxGeometry y="29" width="277" height="90" as="geometry" />
        </mxCell>
        <mxCell id="92w7o3llZzaxUqjqBMz4-143" style="edgeStyle=orthogonalEdgeStyle;rounded=0;orthogonalLoop=1;jettySize=auto;html=1;exitX=0.5;exitY=0;exitDx=0;exitDy=0;" parent="1" source="92w7o3llZzaxUqjqBMz4-59" edge="1">
          <mxGeometry relative="1" as="geometry">
            <mxPoint x="1370" y="395" as="targetPoint" />
          </mxGeometry>
        </mxCell>
        <mxCell id="92w7o3llZzaxUqjqBMz4-144" style="edgeStyle=orthogonalEdgeStyle;rounded=0;orthogonalLoop=1;jettySize=auto;html=1;exitX=0.5;exitY=0;exitDx=0;exitDy=0;" parent="1" source="92w7o3llZzaxUqjqBMz4-62" edge="1">
          <mxGeometry relative="1" as="geometry">
            <mxPoint x="1440" y="395" as="targetPoint" />
          </mxGeometry>
        </mxCell>
        <mxCell id="92w7o3llZzaxUqjqBMz4-62" value="RiyJed" style="swimlane;fontStyle=1;align=center;verticalAlign=middle;childLayout=stackLayout;horizontal=1;startSize=29;horizontalStack=0;resizeParent=1;resizeParentMax=0;resizeLast=0;collapsible=0;marginBottom=0;html=1;whiteSpace=wrap;" parent="1" vertex="1">
          <mxGeometry x="1420" y="446" width="145" height="69" as="geometry" />
        </mxCell>
        <mxCell id="bQdit6f4qzvNT4cyIUKJ-11" value="public String getDeparture()&lt;div&gt;public String getDestination&lt;/div&gt;" style="text;html=1;align=center;verticalAlign=middle;resizable=0;points=[];autosize=1;strokeColor=none;fillColor=none;" vertex="1" parent="92w7o3llZzaxUqjqBMz4-62">
          <mxGeometry y="29" width="145" height="40" as="geometry" />
        </mxCell>
        <mxCell id="92w7o3llZzaxUqjqBMz4-120" value="FlightSchedular" style="swimlane;fontStyle=1;align=center;verticalAlign=middle;childLayout=stackLayout;horizontal=1;startSize=29;horizontalStack=0;resizeParent=1;resizeParentMax=0;resizeLast=0;collapsible=0;marginBottom=0;html=1;whiteSpace=wrap;" parent="1" vertex="1">
          <mxGeometry x="1590" y="75" width="250" height="170" as="geometry" />
        </mxCell>
        <mxCell id="92w7o3llZzaxUqjqBMz4-121" value="public String DepartureTime()&lt;div&gt;&lt;br&gt;&lt;div&gt;Public String ArrivalTime()&lt;/div&gt;&lt;div&gt;&lt;br&gt;&lt;/div&gt;&lt;div&gt;Public String Destination()&lt;/div&gt;&lt;div&gt;&lt;br&gt;&lt;/div&gt;&lt;div&gt;Public String&amp;nbsp;&lt;span style=&quot;background-color: initial;&quot;&gt;Departure()&lt;/span&gt;&lt;/div&gt;&lt;/div&gt;&lt;div&gt;&lt;br&gt;&lt;/div&gt;&lt;div&gt;Public Date getDate()&lt;/div&gt;" style="text;html=1;strokeColor=none;fillColor=none;align=center;verticalAlign=middle;spacingLeft=4;spacingRight=4;overflow=hidden;rotatable=0;points=[[0,0.5],[1,0.5]];portConstraint=eastwest;whiteSpace=wrap;" parent="92w7o3llZzaxUqjqBMz4-120" vertex="1">
          <mxGeometry y="29" width="250" height="141" as="geometry" />
        </mxCell>
        <mxCell id="92w7o3llZzaxUqjqBMz4-149" style="edgeStyle=orthogonalEdgeStyle;rounded=0;orthogonalLoop=1;jettySize=auto;html=1;exitX=0.5;exitY=0;exitDx=0;exitDy=0;" parent="1" source="92w7o3llZzaxUqjqBMz4-124" edge="1">
          <mxGeometry relative="1" as="geometry">
            <mxPoint x="1715.3333333333335" y="265" as="targetPoint" />
          </mxGeometry>
        </mxCell>
        <mxCell id="92w7o3llZzaxUqjqBMz4-145" style="edgeStyle=orthogonalEdgeStyle;rounded=0;orthogonalLoop=1;jettySize=auto;html=1;exitX=0.5;exitY=0;exitDx=0;exitDy=0;" parent="1" source="92w7o3llZzaxUqjqBMz4-127" edge="1">
          <mxGeometry relative="1" as="geometry">
            <mxPoint x="1690" y="395" as="targetPoint" />
          </mxGeometry>
        </mxCell>
        <mxCell id="92w7o3llZzaxUqjqBMz4-127" value="JedRiy" style="swimlane;fontStyle=1;align=center;verticalAlign=middle;childLayout=stackLayout;horizontal=1;startSize=29;horizontalStack=0;resizeParent=1;resizeParentMax=0;resizeLast=0;collapsible=0;marginBottom=0;html=1;whiteSpace=wrap;" parent="1" vertex="1">
          <mxGeometry x="1580" y="446" width="145" height="69" as="geometry" />
        </mxCell>
        <mxCell id="bQdit6f4qzvNT4cyIUKJ-12" value="public String getDeparture()&lt;div&gt;public String getDestination&lt;/div&gt;" style="text;html=1;align=center;verticalAlign=middle;resizable=0;points=[];autosize=1;strokeColor=none;fillColor=none;" vertex="1" parent="92w7o3llZzaxUqjqBMz4-127">
          <mxGeometry y="29" width="145" height="40" as="geometry" />
        </mxCell>
        <mxCell id="92w7o3llZzaxUqjqBMz4-146" style="edgeStyle=orthogonalEdgeStyle;rounded=0;orthogonalLoop=1;jettySize=auto;html=1;exitX=0.5;exitY=0;exitDx=0;exitDy=0;" parent="1" source="92w7o3llZzaxUqjqBMz4-130" edge="1">
          <mxGeometry relative="1" as="geometry">
            <mxPoint x="1740" y="395" as="targetPoint" />
          </mxGeometry>
        </mxCell>
        <mxCell id="92w7o3llZzaxUqjqBMz4-130" value="DamRiy" style="swimlane;fontStyle=1;align=center;verticalAlign=middle;childLayout=stackLayout;horizontal=1;startSize=29;horizontalStack=0;resizeParent=1;resizeParentMax=0;resizeLast=0;collapsible=0;marginBottom=0;html=1;whiteSpace=wrap;" parent="1" vertex="1">
          <mxGeometry x="1730" y="446" width="145" height="69" as="geometry" />
        </mxCell>
        <mxCell id="bQdit6f4qzvNT4cyIUKJ-13" value="public String getDeparture()&lt;div&gt;public String getDestination&lt;/div&gt;" style="text;html=1;align=center;verticalAlign=middle;resizable=0;points=[];autosize=1;strokeColor=none;fillColor=none;" vertex="1" parent="92w7o3llZzaxUqjqBMz4-130">
          <mxGeometry y="29" width="145" height="40" as="geometry" />
        </mxCell>
        <mxCell id="92w7o3llZzaxUqjqBMz4-147" style="edgeStyle=orthogonalEdgeStyle;rounded=0;orthogonalLoop=1;jettySize=auto;html=1;exitX=0.5;exitY=0;exitDx=0;exitDy=0;" parent="1" source="92w7o3llZzaxUqjqBMz4-136" edge="1">
          <mxGeometry relative="1" as="geometry">
            <mxPoint x="1999.9999999999995" y="395" as="targetPoint" />
          </mxGeometry>
        </mxCell>
        <mxCell id="92w7o3llZzaxUqjqBMz4-136" value="RiyDam" style="swimlane;fontStyle=1;align=center;verticalAlign=middle;childLayout=stackLayout;horizontal=1;startSize=29;horizontalStack=0;resizeParent=1;resizeParentMax=0;resizeLast=0;collapsible=0;marginBottom=0;html=1;whiteSpace=wrap;" parent="1" vertex="1">
          <mxGeometry x="1890" y="446" width="145" height="69" as="geometry" />
        </mxCell>
        <mxCell id="bQdit6f4qzvNT4cyIUKJ-14" value="public String getDeparture()&lt;div&gt;public String getDestination&lt;/div&gt;" style="text;html=1;align=center;verticalAlign=middle;resizable=0;points=[];autosize=1;strokeColor=none;fillColor=none;" vertex="1" parent="92w7o3llZzaxUqjqBMz4-136">
          <mxGeometry y="29" width="145" height="40" as="geometry" />
        </mxCell>
        <mxCell id="92w7o3llZzaxUqjqBMz4-148" style="edgeStyle=orthogonalEdgeStyle;rounded=0;orthogonalLoop=1;jettySize=auto;html=1;exitX=0.5;exitY=0;exitDx=0;exitDy=0;" parent="1" source="92w7o3llZzaxUqjqBMz4-139" edge="1">
          <mxGeometry relative="1" as="geometry">
            <mxPoint x="2049.9999999999995" y="395" as="targetPoint" />
          </mxGeometry>
        </mxCell>
        <mxCell id="92w7o3llZzaxUqjqBMz4-139" value="JedDam" style="swimlane;fontStyle=1;align=center;verticalAlign=middle;childLayout=stackLayout;horizontal=1;startSize=29;horizontalStack=0;resizeParent=1;resizeParentMax=0;resizeLast=0;collapsible=0;marginBottom=0;html=1;whiteSpace=wrap;" parent="1" vertex="1">
          <mxGeometry x="2040" y="446" width="145" height="69" as="geometry" />
        </mxCell>
        <mxCell id="bQdit6f4qzvNT4cyIUKJ-15" value="public String getDeparture()&lt;div&gt;public String getDestination&lt;/div&gt;" style="text;html=1;align=center;verticalAlign=middle;resizable=0;points=[];autosize=1;strokeColor=none;fillColor=none;" vertex="1" parent="92w7o3llZzaxUqjqBMz4-139">
          <mxGeometry y="29" width="145" height="40" as="geometry" />
        </mxCell>
        <mxCell id="92w7o3llZzaxUqjqBMz4-152" value="Flight Schedular (Builder)" style="swimlane;whiteSpace=wrap;html=1;" parent="1" vertex="1">
          <mxGeometry x="1220" y="45" width="980" height="560" as="geometry" />
        </mxCell>
        <mxCell id="92w7o3llZzaxUqjqBMz4-56" value="ToJeddah &amp;lt;&amp;lt;AbstractClass&amp;gt;&amp;gt;" style="swimlane;fontStyle=1;align=center;verticalAlign=middle;childLayout=stackLayout;horizontal=1;startSize=29;horizontalStack=0;resizeParent=1;resizeParentMax=0;resizeLast=0;collapsible=0;marginBottom=0;html=1;whiteSpace=wrap;" parent="92w7o3llZzaxUqjqBMz4-152" vertex="1">
          <mxGeometry x="110" y="230" width="140" height="120" as="geometry" />
        </mxCell>
        <mxCell id="92w7o3llZzaxUqjqBMz4-57" value="-Attribute String Arrival Time&lt;div&gt;-Attribute: String departureTime&lt;/div&gt;&lt;div&gt;-Attribute: Date date&lt;/div&gt;" style="text;html=1;strokeColor=none;fillColor=none;align=center;verticalAlign=middle;spacingLeft=4;spacingRight=4;overflow=hidden;rotatable=0;points=[[0,0.5],[1,0.5]];portConstraint=eastwest;whiteSpace=wrap;" parent="92w7o3llZzaxUqjqBMz4-56" vertex="1">
          <mxGeometry y="29" width="140" height="91" as="geometry" />
        </mxCell>
        <mxCell id="92w7o3llZzaxUqjqBMz4-124" value="ToRiyadh &amp;lt;&amp;lt;AbstractClass&amp;gt;&amp;gt;" style="swimlane;fontStyle=1;align=center;verticalAlign=middle;childLayout=stackLayout;horizontal=1;startSize=29;horizontalStack=0;resizeParent=1;resizeParentMax=0;resizeLast=0;collapsible=0;marginBottom=0;html=1;whiteSpace=wrap;" parent="92w7o3llZzaxUqjqBMz4-152" vertex="1">
          <mxGeometry x="425" y="229" width="140" height="120" as="geometry" />
        </mxCell>
        <mxCell id="92w7o3llZzaxUqjqBMz4-125" value="-Attribute: String Arrival Time&lt;div style=&quot;border-color: var(--border-color);&quot;&gt;-Attribute: String departureTime&lt;/div&gt;&lt;div style=&quot;border-color: var(--border-color);&quot;&gt;-Attribute: Date date&lt;/div&gt;" style="text;html=1;strokeColor=none;fillColor=none;align=center;verticalAlign=middle;spacingLeft=4;spacingRight=4;overflow=hidden;rotatable=0;points=[[0,0.5],[1,0.5]];portConstraint=eastwest;whiteSpace=wrap;" parent="92w7o3llZzaxUqjqBMz4-124" vertex="1">
          <mxGeometry y="29" width="140" height="91" as="geometry" />
        </mxCell>
        <mxCell id="92w7o3llZzaxUqjqBMz4-133" value="ToDammam &amp;lt;&amp;lt;AbstractClass&amp;gt;&amp;gt;" style="swimlane;fontStyle=1;align=center;verticalAlign=middle;childLayout=stackLayout;horizontal=1;startSize=29;horizontalStack=0;resizeParent=1;resizeParentMax=0;resizeLast=0;collapsible=0;marginBottom=0;html=1;whiteSpace=wrap;" parent="92w7o3llZzaxUqjqBMz4-152" vertex="1">
          <mxGeometry x="735" y="231" width="140" height="119" as="geometry" />
        </mxCell>
        <mxCell id="92w7o3llZzaxUqjqBMz4-134" value="-Attribute: String Arrival Time&lt;div style=&quot;border-color: var(--border-color);&quot;&gt;-Attribute: String departureTime&lt;/div&gt;&lt;div style=&quot;border-color: var(--border-color);&quot;&gt;-Attribute: Date date&lt;/div&gt;" style="text;html=1;strokeColor=none;fillColor=none;align=center;verticalAlign=middle;spacingLeft=4;spacingRight=4;overflow=hidden;rotatable=0;points=[[0,0.5],[1,0.5]];portConstraint=eastwest;whiteSpace=wrap;" parent="92w7o3llZzaxUqjqBMz4-133" vertex="1">
          <mxGeometry y="29" width="140" height="90" as="geometry" />
        </mxCell>
        <mxCell id="92w7o3llZzaxUqjqBMz4-151" style="edgeStyle=orthogonalEdgeStyle;rounded=0;orthogonalLoop=1;jettySize=auto;html=1;exitX=0;exitY=0.5;exitDx=0;exitDy=0;" parent="92w7o3llZzaxUqjqBMz4-152" edge="1">
          <mxGeometry relative="1" as="geometry">
            <mxPoint x="600" y="218" as="targetPoint" />
            <mxPoint x="735" y="342" as="sourcePoint" />
          </mxGeometry>
        </mxCell>
        <mxCell id="92w7o3llZzaxUqjqBMz4-150" style="edgeStyle=orthogonalEdgeStyle;rounded=0;orthogonalLoop=1;jettySize=auto;html=1;exitX=1;exitY=0.5;exitDx=0;exitDy=0;" parent="92w7o3llZzaxUqjqBMz4-152" edge="1">
          <mxGeometry relative="1" as="geometry">
            <mxPoint x="395" y="217.5" as="targetPoint" />
            <mxPoint x="250" y="342" as="sourcePoint" />
          </mxGeometry>
        </mxCell>
        <mxCell id="92w7o3llZzaxUqjqBMz4-59" value="DamJed" style="swimlane;fontStyle=1;align=center;verticalAlign=middle;childLayout=stackLayout;horizontal=1;startSize=29;horizontalStack=0;resizeParent=1;resizeParentMax=0;resizeLast=0;collapsible=0;marginBottom=0;html=1;whiteSpace=wrap;" parent="92w7o3llZzaxUqjqBMz4-152" vertex="1">
          <mxGeometry x="10" y="401" width="158" height="69" as="geometry" />
        </mxCell>
        <mxCell id="bQdit6f4qzvNT4cyIUKJ-10" value="public String getDeparture()&lt;div&gt;public String getDestination&lt;/div&gt;" style="text;html=1;align=center;verticalAlign=middle;resizable=0;points=[];autosize=1;strokeColor=none;fillColor=none;" vertex="1" parent="92w7o3llZzaxUqjqBMz4-59">
          <mxGeometry y="29" width="158" height="40" as="geometry" />
        </mxCell>
        <mxCell id="NybTInfgv7kDnDXbEksJ-3" value="Strategy &amp;lt;&amp;lt;Interface&amp;gt;&amp;gt;" style="swimlane;fontStyle=1;align=center;verticalAlign=middle;childLayout=stackLayout;horizontal=1;startSize=29;horizontalStack=0;resizeParent=1;resizeParentMax=0;resizeLast=0;collapsible=0;marginBottom=0;html=1;whiteSpace=wrap;" parent="1" vertex="1">
          <mxGeometry x="565" y="785" width="200" height="54" as="geometry" />
        </mxCell>
        <mxCell id="NybTInfgv7kDnDXbEksJ-4" value="Public String classInfo()" style="text;html=1;strokeColor=none;fillColor=none;align=center;verticalAlign=middle;spacingLeft=4;spacingRight=4;overflow=hidden;rotatable=0;points=[[0,0.5],[1,0.5]];portConstraint=eastwest;whiteSpace=wrap;" parent="NybTInfgv7kDnDXbEksJ-3" vertex="1">
          <mxGeometry y="29" width="200" height="25" as="geometry" />
        </mxCell>
        <mxCell id="NybTInfgv7kDnDXbEksJ-6" value="First" style="swimlane;fontStyle=1;align=center;verticalAlign=middle;childLayout=stackLayout;horizontal=1;startSize=29;horizontalStack=0;resizeParent=1;resizeParentMax=0;resizeLast=0;collapsible=0;marginBottom=0;html=1;whiteSpace=wrap;" parent="1" vertex="1">
          <mxGeometry x="455" y="870" width="140" height="54" as="geometry" />
        </mxCell>
        <mxCell id="NybTInfgv7kDnDXbEksJ-7" value="public String classInfo()" style="text;html=1;strokeColor=none;fillColor=none;align=center;verticalAlign=middle;spacingLeft=4;spacingRight=4;overflow=hidden;rotatable=0;points=[[0,0.5],[1,0.5]];portConstraint=eastwest;whiteSpace=wrap;" parent="NybTInfgv7kDnDXbEksJ-6" vertex="1">
          <mxGeometry y="29" width="140" height="25" as="geometry" />
        </mxCell>
        <mxCell id="NybTInfgv7kDnDXbEksJ-9" value="Economy" style="swimlane;fontStyle=1;align=center;verticalAlign=middle;childLayout=stackLayout;horizontal=1;startSize=29;horizontalStack=0;resizeParent=1;resizeParentMax=0;resizeLast=0;collapsible=0;marginBottom=0;html=1;whiteSpace=wrap;" parent="1" vertex="1">
          <mxGeometry x="735" y="870" width="140" height="54" as="geometry" />
        </mxCell>
        <mxCell id="NybTInfgv7kDnDXbEksJ-10" value="Public String classInfo()" style="text;html=1;strokeColor=none;fillColor=none;align=center;verticalAlign=middle;spacingLeft=4;spacingRight=4;overflow=hidden;rotatable=0;points=[[0,0.5],[1,0.5]];portConstraint=eastwest;whiteSpace=wrap;" parent="NybTInfgv7kDnDXbEksJ-9" vertex="1">
          <mxGeometry y="29" width="140" height="25" as="geometry" />
        </mxCell>
        <mxCell id="NybTInfgv7kDnDXbEksJ-17" style="edgeStyle=orthogonalEdgeStyle;rounded=0;orthogonalLoop=1;jettySize=auto;html=1;exitX=0.5;exitY=1;exitDx=0;exitDy=0;entryX=0.5;entryY=0;entryDx=0;entryDy=0;" parent="1" source="NybTInfgv7kDnDXbEksJ-12" target="NybTInfgv7kDnDXbEksJ-3" edge="1">
          <mxGeometry relative="1" as="geometry" />
        </mxCell>
        <mxCell id="NybTInfgv7kDnDXbEksJ-18" value="0, 1" style="edgeLabel;html=1;align=center;verticalAlign=middle;resizable=0;points=[];" parent="NybTInfgv7kDnDXbEksJ-17" vertex="1" connectable="0">
          <mxGeometry x="0.0786" y="1" relative="1" as="geometry">
            <mxPoint as="offset" />
          </mxGeometry>
        </mxCell>
        <mxCell id="NybTInfgv7kDnDXbEksJ-12" value="FlightClass" style="swimlane;fontStyle=1;align=center;verticalAlign=middle;childLayout=stackLayout;horizontal=1;startSize=29;horizontalStack=0;resizeParent=1;resizeParentMax=0;resizeLast=0;collapsible=0;marginBottom=0;html=1;whiteSpace=wrap;" parent="1" vertex="1">
          <mxGeometry x="565" y="640" width="200" height="90" as="geometry" />
        </mxCell>
        <mxCell id="NybTInfgv7kDnDXbEksJ-14" value="&lt;div&gt;-Attribute: Strategy&lt;/div&gt;public String getClass()&lt;div&gt;public void setStrategy(Strategy)&lt;/div&gt;" style="text;html=1;strokeColor=none;fillColor=none;align=left;verticalAlign=middle;spacingLeft=4;spacingRight=4;overflow=hidden;rotatable=0;points=[[0,0.5],[1,0.5]];portConstraint=eastwest;whiteSpace=wrap;" parent="NybTInfgv7kDnDXbEksJ-12" vertex="1">
          <mxGeometry y="29" width="200" height="61" as="geometry" />
        </mxCell>
        <mxCell id="NybTInfgv7kDnDXbEksJ-19" style="edgeStyle=orthogonalEdgeStyle;rounded=0;orthogonalLoop=1;jettySize=auto;html=1;exitX=1;exitY=0.5;exitDx=0;exitDy=0;entryX=0.5;entryY=0;entryDx=0;entryDy=0;" parent="1" source="NybTInfgv7kDnDXbEksJ-4" target="NybTInfgv7kDnDXbEksJ-9" edge="1">
          <mxGeometry relative="1" as="geometry" />
        </mxCell>
        <mxCell id="NybTInfgv7kDnDXbEksJ-20" style="edgeStyle=orthogonalEdgeStyle;rounded=0;orthogonalLoop=1;jettySize=auto;html=1;exitX=0;exitY=0.5;exitDx=0;exitDy=0;entryX=0.572;entryY=-0.024;entryDx=0;entryDy=0;entryPerimeter=0;" parent="1" source="NybTInfgv7kDnDXbEksJ-4" target="NybTInfgv7kDnDXbEksJ-6" edge="1">
          <mxGeometry relative="1" as="geometry" />
        </mxCell>
        <mxCell id="NybTInfgv7kDnDXbEksJ-22" value="Flight Class Choosing (Strategy)" style="swimlane;whiteSpace=wrap;html=1;" parent="1" vertex="1">
          <mxGeometry x="425" y="590" width="470" height="430" as="geometry" />
        </mxCell>
        <mxCell id="NybTInfgv7kDnDXbEksJ-41" style="edgeStyle=orthogonalEdgeStyle;rounded=0;orthogonalLoop=1;jettySize=auto;html=1;exitX=0.5;exitY=0;exitDx=0;exitDy=0;entryX=0.546;entryY=1.04;entryDx=0;entryDy=0;entryPerimeter=0;" parent="1" source="NybTInfgv7kDnDXbEksJ-28" target="NybTInfgv7kDnDXbEksJ-26" edge="1">
          <mxGeometry relative="1" as="geometry" />
        </mxCell>
        <mxCell id="NybTInfgv7kDnDXbEksJ-47" style="edgeStyle=orthogonalEdgeStyle;rounded=0;orthogonalLoop=1;jettySize=auto;html=1;entryX=0.5;entryY=0;entryDx=0;entryDy=0;" parent="1" source="NybTInfgv7kDnDXbEksJ-45" target="92w7o3llZzaxUqjqBMz4-7" edge="1">
          <mxGeometry relative="1" as="geometry" />
        </mxCell>
        <mxCell id="NybTInfgv7kDnDXbEksJ-50" value="Ticket Creator (Adapter Pattern)" style="swimlane;whiteSpace=wrap;html=1;" parent="1" vertex="1">
          <mxGeometry x="937" y="640" width="783" height="400" as="geometry" />
        </mxCell>
        <mxCell id="NybTInfgv7kDnDXbEksJ-28" value="Ticket &amp;lt;&amp;lt;Interface&amp;gt;&amp;gt;" style="swimlane;fontStyle=1;align=center;verticalAlign=middle;childLayout=stackLayout;horizontal=1;startSize=29;horizontalStack=0;resizeParent=1;resizeParentMax=0;resizeLast=0;collapsible=0;marginBottom=0;html=1;whiteSpace=wrap;" parent="NybTInfgv7kDnDXbEksJ-50" vertex="1">
          <mxGeometry x="93" y="120" width="160" height="210" as="geometry" />
        </mxCell>
        <mxCell id="NybTInfgv7kDnDXbEksJ-29" value="public String getTicket()" style="text;html=1;strokeColor=none;fillColor=none;align=center;verticalAlign=middle;spacingLeft=4;spacingRight=4;overflow=hidden;rotatable=0;points=[[0,0.5],[1,0.5]];portConstraint=eastwest;whiteSpace=wrap;" parent="NybTInfgv7kDnDXbEksJ-28" vertex="1">
          <mxGeometry y="29" width="160" height="181" as="geometry" />
        </mxCell>
        <mxCell id="bQdit6f4qzvNT4cyIUKJ-6" value="FlightAdapter" style="swimlane;fontStyle=1;align=center;verticalAlign=middle;childLayout=stackLayout;horizontal=1;startSize=29;horizontalStack=0;resizeParent=1;resizeParentMax=0;resizeLast=0;collapsible=0;marginBottom=0;html=1;whiteSpace=wrap;" vertex="1" parent="NybTInfgv7kDnDXbEksJ-50">
          <mxGeometry x="463" y="60" width="190" height="310" as="geometry" />
        </mxCell>
        <mxCell id="bQdit6f4qzvNT4cyIUKJ-8" value="&lt;div style=&quot;text-align: center;&quot;&gt;&lt;span style=&quot;background-color: initial;&quot;&gt;Attribute: String name&lt;/span&gt;&lt;br&gt;&lt;/div&gt;&lt;div&gt;&lt;div style=&quot;text-align: center; line-height: 14.4px;&quot;&gt;&lt;br&gt;&lt;/div&gt;&lt;div style=&quot;text-align: center; line-height: 14.4px;&quot;&gt;&lt;span style=&quot;background-color: initial;&quot;&gt;Attribute: String phoneNumber&lt;/span&gt;&lt;/div&gt;&lt;div style=&quot;line-height: 14.4px;&quot;&gt;&lt;div style=&quot;text-align: center; line-height: 14.4px;&quot;&gt;&lt;span style=&quot;background-color: initial;&quot;&gt;&lt;br&gt;&lt;/span&gt;&lt;/div&gt;&lt;div style=&quot;line-height: 14.4px;&quot;&gt;&lt;div style=&quot;text-align: center;&quot;&gt;&lt;span style=&quot;background-color: initial;&quot;&gt;Attribute: FlightSchedular flight&lt;/span&gt;&lt;/div&gt;&lt;div style=&quot;text-align: center;&quot;&gt;&lt;br&gt;&lt;/div&gt;&lt;/div&gt;&lt;/div&gt;&lt;div style=&quot;text-align: center; line-height: 14.4px;&quot;&gt;public String getTicket()&lt;/div&gt;&lt;div style=&quot;text-align: center; line-height: 14.4px;&quot;&gt;&lt;br style=&quot;&quot;&gt;&lt;/div&gt;&lt;/div&gt;" style="text;html=1;strokeColor=none;fillColor=none;align=left;verticalAlign=middle;spacingLeft=4;spacingRight=4;overflow=hidden;rotatable=0;points=[[0,0.5],[1,0.5]];portConstraint=eastwest;whiteSpace=wrap;" vertex="1" parent="bQdit6f4qzvNT4cyIUKJ-6">
          <mxGeometry y="29" width="190" height="281" as="geometry" />
        </mxCell>
        <mxCell id="NybTInfgv7kDnDXbEksJ-62" style="edgeStyle=orthogonalEdgeStyle;rounded=0;orthogonalLoop=1;jettySize=auto;html=1;exitX=1;exitY=0.5;exitDx=0;exitDy=0;entryX=0.005;entryY=0.544;entryDx=0;entryDy=0;entryPerimeter=0;" parent="NybTInfgv7kDnDXbEksJ-50" source="NybTInfgv7kDnDXbEksJ-29" edge="1" target="bQdit6f4qzvNT4cyIUKJ-8">
          <mxGeometry relative="1" as="geometry">
            <mxPoint x="393" y="239.15789473684208" as="targetPoint" />
          </mxGeometry>
        </mxCell>
        <mxCell id="NybTInfgv7kDnDXbEksJ-60" style="edgeStyle=orthogonalEdgeStyle;rounded=0;orthogonalLoop=1;jettySize=auto;html=1;entryX=1;entryY=0.5;entryDx=0;entryDy=0;exitX=1;exitY=0.5;exitDx=0;exitDy=0;" parent="1" edge="1" source="bQdit6f4qzvNT4cyIUKJ-8">
          <mxGeometry relative="1" as="geometry">
            <mxPoint x="1670" y="875.55" as="sourcePoint" />
            <mxPoint x="1880" y="190" as="targetPoint" />
            <Array as="points">
              <mxPoint x="1590" y="876" />
              <mxPoint x="2310" y="876" />
              <mxPoint x="2310" y="206" />
              <mxPoint x="1880" y="206" />
            </Array>
          </mxGeometry>
        </mxCell>
      </root>
    </mxGraphModel>
  </diagram>
</mxfile>
